<?xml version="1.0" encoding="UTF-8"?>
<svg id="svg76" xmlns="http://www.w3.org/2000/svg" xmlns:svg="http://www.w3.org/2000/svg" xmlns:sodipodi="http://sodipodi.sourceforge.net/DTD/sodipodi-0.dtd" xmlns:inkscape="http://www.inkscape.org/namespaces/inkscape" version="1.1" viewBox="0 0 711.5 711.5">
  <!-- Generator: Adobe Illustrator 29.8.1, SVG Export Plug-In . SVG Version: 2.1.1 Build 2)  -->
  <defs>
    <style>
      .st0 {
        fill: #93d7d3;
        stroke: #93d7d3;
      }

      .st1 {
        fill: #5f928d;
        stroke: #5f928d;
      }

      .st2 {
        fill: #b68782;
        stroke: #b68782;
      }

      .st3 {
        fill: #dcdbd9;
        stroke: #dcdbd9;
      }

      .st4 {
        fill: #789080;
        stroke: #789080;
      }

      .st5 {
        fill: #1e1e1e;
        stroke: #1e1e1e;
      }

      .st6 {
        fill: #bdd8de;
        stroke: #bdd8de;
      }

      .st7 {
        fill: #fb965d;
        stroke: #fb965d;
      }

      .st8 {
        fill: #fefefe;
        stroke: #fefefe;
      }

      .st9 {
        fill: #262626;
        stroke: #262626;
      }

      .st10 {
        fill: #fcba7d;
        stroke: #fcba7d;
      }

      .st11 {
        fill: #e3e3e3;
        stroke: #e3e3e3;
      }

      .st12 {
        fill: #9dd9c6;
        stroke: #9dd9c6;
      }

      .st13 {
        fill: #80c9e3;
        stroke: #80c9e3;
      }
    </style>
  </defs>
  <sodipodi:namedview id="namedview76" bordercolor="#000000" borderopacity="0.25" inkscape:current-layer="svg76" inkscape:cx="24.500238" inkscape:cy="205.52977" inkscape:deskcolor="#d1d1d1" inkscape:pagecheckerboard="0" inkscape:pageopacity="0.0" inkscape:showpageshadow="2" inkscape:window-height="1022" inkscape:window-maximized="1" inkscape:window-width="1920" inkscape:window-x="0" inkscape:window-y="30" inkscape:zoom="0.36734337" pagecolor="#ffffff"/>
  <path id="_x32_9" class="st5" d="M277.1,527.2c-.3-.8,0-2.2.7-3,1.1-1.3,5.3-1.5,29.4-1.2,0,0,28.1.3,28.1,5.3l-28.8.3c-25.1.2-28.9,0-29.4-1.3"/>
  <path id="_x31_8" class="st11" d="M309.7,589.7c-1.9-1.2-11.8-3.2-20.4-6-.7,0-2.4-1.3-3.9-3-2.8-3.1-3.9-3.5-12.1-4.5-5.2-.6-7.6-1.9-7.6-4.2s-1.8-1.4-7.2-1.5c-4,0-13.3-.3-20.8-.5-24.5-.6-65.9-.5-74,.2l-8,.7-7.3-6.5c-12.8-11.5-40.3-38.6-39.7-39.1s3.4.4,7,1.5c6.2,1.9,8.8,2,58.4,1.9,50.3-.1,52-.2,53.8-2.1,3.9-4.2,7.1-1.9,8.4,6,1.2,7.3,2.8,7.6,18.5,4,7.4-1.7,14-3.6,14.6-4.1s1.3-2.6,1.3-4.4c0-2.9.3-3.4,2.5-3.4s2.9.8,3.5,2c1,1.9,2.1,2,29.5,2s28.5,0,29.7-2c2.1-3.3,5-2.4,7.3,2.2,2.6,5.3,6.2,7.9,11.6,8.5,6.2.6,10.7-2,13.9-8.3,1.4-2.7,3.1-4.9,3.8-4.8,2.7.2,3.1.5,3.7,2.4.6,2,1.1,2,109.9,1.8l109.3-.3,8.6-4.2c40.3-20,35.2-77.8-8.1-90.6-4.7-1.4-12.7-1.6-59.7-1.6s-54.5-.3-54.7-.8c-.3-.4,6.4-6.7,14.9-14l15.3-13.2h40c43.4,0,46.7-.3,57.1-5.4,27.7-13.4,34.3-51.5,12.8-74.3-6.2-6.5-11.5-9.9-19.9-12.5-5.5-1.7-9.7-1.9-48.5-1.9h-42.4l-13.5-11.7c-7.4-6.4-13.5-12.1-13.5-12.5s24-.8,53.3-.8c46.1,0,54.1-.2,58.8-1.6,15.9-4.7,27.5-15.5,33.1-31,3.2-8.9,3.1-23.6-.4-32.7l-2.6-6.8,4.6,4.2c2.5,2.3,15.3,15.4,28.4,29.1,17.9,18.7,23.6,25.3,23.1,26.5-1.8,4.1-1.6,10.1-.8,20-1,5.8-.8,6.9,1.4,7.5,2.4.6,2.6,4.3.8,11.2-1.2,4.4-1.1,4.6,1.9,7.8,1.7,1.8,4.2,5.3,5.5,7.8s3.4,5.5,4.6,6.8c2.1,2.1,2.1,2.5.8,4.4-1.3,1.9-1.2,2.3,1.6,4.9l3.1,2.8-1.2,5.6c-1.3,6-5,11.3-6.9,10.1-.7-7-5.3-2-4.7.4-.3,0-4.5-3.4-9.2-7.6-4.8-4.2-11.2-9.4-14.2-11.5s-6.6-4.8-8-5.9c-1.4-1.1-4.2-2.2-6.3-2.5s-4.7-1.1-5.9-1.9-2.6-1.3-3.3-1c-.6.2-3.2-.2-5.6-1.1-7.2-2.5-7.4-.4-.5,5.7,3.2,2.9,6.2,5.2,6.6,5.2s1.8,1.4,3.1,3.2c5.6,7.7,20.4,25,32.7,38.3,3.4,3.6,4,5,3.6,7.1-.4,1.8,0,3.1,2.5,10.5,1.6,1,1.2,5.5-.5,5.5-1,3.9,6.6,4.6.9,6.5-1.6,1.3-3.3,2.4-4.9,8.5-.9.8-1.4,2.6-1.2,5,.2,3,1.5,5.3,6,10.6,11.2,13.5,12.7,15.5,12.7,17.8s.4,3.5,1,4.9c.9,2.3.5,3-2.8,6.3-2.1,2.1-4.1,4.5-4.5,5.5-.8,2.1-2.5,2.2-5.1.2-1.7-1.3-2.2-1.2-4.3.7-2.3,2.2-2.4,2.2-5.8.4-1.9-1-5.1-3.4-7.2-5.4-7.6-7.1-18.6-14.3-20.8-13.8-3.1.8-6.2-1.8-6.3-5.3-.1-4.6-1-5.3-4-3.6-1.5.8-3.9,1.7-5.3,2s-3.7,1.4-4.9,2.4l-2.3,1.9,2.7,4.6c1.5,2.5,3.5,4.8,4.5,5.2,2.9.9,40.9,42.5,42.1,46.1,1.2,3.6-.4,18.7-2.7,24.4-.3.8-.6,3.3-.5,5.5,0,4.5-3.1,8.9-5.8,8-3,1-3,9.7-5.2,8.2-2.1,2.8-12.2,11.3-13.4,11.3s-1.7.7-2.4,1.5c-2.1,2.5-10.1,6.5-13,6.5s-3.5.9-4.5,1.9c-1.5,1.6-2.7,1.9-8.4,1.5-9.4-.6-11.3-.5-12.7.6-.8.7-2.1.7-3.8,0-2.2-.8-9.7-1-39.1-1-1.1,0-3.4,0-5.2,0s-4.2-.6-5.5-1.5c-2.5-1.8-6.3-2.2-5.3-.6-2.4,1.1-10.8,3.4-10.8.5.5,1.3-.8,1.5-9.7,1.4-5.7,0-11-.6-11.9-1.1-1.1-.7-2.6-.4-5,.9-2.9,1.6-3.9,1.7-5.9.7-1.7-.9-3.2-.9-5-.3-1.9.7-2.8.6-3.6-.4-1.3-1.8-18.4-4.1-20-2.7-.8.6-1.6.6-2.3-.2-.8-.8-5.3-1.1-13.4-1-15.3.2-16.1.3-20.5,4.3.6-2.2-.6-3.4-3.5-3.6.1,2-5.1,3.2-6.5,1.4-2.6-.4-2.8-.1-2.9,2.8-.1,4.2-2.1,7.7-3.9,7-.8-.3-1.4,0-1.4.8,0,2-5.7,4.6-11.7,5.3-4.9.5-5.4.4-10-3.4-9.7-8-15.8-10.4-26.6-10.7-3,0-4.2-.5-4.2-1.6,0-1.2-2.4-1.5-14-1.8-14.9-.3-18.6.1-18.2,2,.1.7-.7,1.4-1.9,1.5-1.9.3-2.1.8-1.6,3.7.9,5.7-.3,8.5-3.7,8.5s-4.7.6-6.7,1.4c-5.4,2-9.6,2.6-11.3,1.5M654.7,432.9c6.2-.6,6.5-.8,6.8-3.4.2-2-1.7-6.1-7.3-15.2-4.2-6.8-8.3-12.7-9.1-13-3-1.2-5.4,1.6-11.8,13.8-9.4,17.7-9.1,18.7,5.4,18.5,5.3,0,12.5-.4,16-.8M645.1,315.5c.8-1.2,2.9-8.2,4.8-15.5,3.5-13.5,3.4-16.3-.2-17-.8-.1-8.1,1.7-16.4,4-14.7,4.2-15,4.3-15.3,7.2-.3,2.6,1,4.1,10.5,13.2,11.4,10.9,14.1,12.2,16.7,8.1"/>
  <path id="path1" class="st5" d="M383.7,527.8c-7.2-.8-7.1-2.5.2-2.9,3.2-.2,5.8-.7,5.8-1.2s37.3-1,99.3-1,100.2-.2,103.9-1.4c2.8-.9,4.9-1,5.5-.4,1.1,1.1,8.2-2.8,8.3-4.5,0-.6,3.4-4,7.5-7.6s7.8-7.4,8.1-8.5c1-3.2,1.5-8.1,1.8-21.4.3-13.5-.6-19.1-3.4-19.8-1-.3-2.4-1.6-3.2-3-.7-1.4-3.5-4.5-6.1-6.8-2.6-2.4-4.8-4.7-4.8-5.3,0-1.8-6.9-5.4-9.3-4.8-1.2.3-4,.1-6.2-.4s-30.7-1-63.4-1c0,0-59.4,0-63.8,5.4.4,1.3-17.4,16.7-18.5,16-1.2-.7-9.9,6.7-10.9,9.4-1.1,2.8-9,7.9-14.4,9.4-8,2.2-24.5-1-24.5-4.7s-5.4-5.7-8.1-6.7c-2.6-1-6.8-10.7-7.5-17.5-.5-5.2-.3-6.6,1.1-8.2,1-1.1,1.4-2.4,1.1-3-.4-.7-14.8-1.1-45.1-1.1-42.9,0-44.4,0-45.4-1.9-.6-1.1-1-2.2-1-2.5s20.5-.6,45.5-.6h45.5l8.1-8c4.4-4.4,8.8-8,9.7-8,1.8,0,7.2-4.8,11.6-12h-142.4c-154.3,0-148.8.2-159.7-5.4-6.3-3.2-14.2-10.4-18.2-16.6-7.3-11.4-9.3-28.7-4.5-38.5,1.4-2.8,2.5-5.9,2.5-7.1,0-3.1,7.4-12.8,12.7-16.7,7.1-5.2,10.1-6.4,17.5-7.2,3.7-.4,7-1.1,7.3-1.6.3-.6,56.8-.9,142-.9s141.4-.4,141.4-.8-4.3-4.6-9.6-9.2c-5.3-4.7-11-10.1-12.8-12.1-3.1-3.6-9-5.8-10.2-3.9-.4.6-16.6,1-42.4,1-37.7,0-41.9-.2-42.5-1.6-1.6-4.3-.6-4.4,45.6-4.4s43.9-.2,43.4-1.5c-1.7-4.4-1.8-11.6-.2-17,4.4-15.1,16.3-24.5,31.1-24.5,11.8,0,13.6,1,39.1,23l23.2,20h56.3c47.7,0,57.2-.2,62.3-1.6,12.2-3.2,21.6-10.8,27.2-22.3,3.7-7.4,3.7-7.8,3.7-19.1s-.2-12-2.8-17.3c-4.3-8.7-11.6-16.1-20.2-20.3-9.8-4.8-16.3-5.3-74.6-5.4-40.2,0-46.8-.3-47.9-1.5-1-1.2-1-1.8,0-3,1.1-1.4,7.7-1.5,57.4-1.2,55.2.3,56.2.4,62,2.5,15.2,5.7,26.1,17,31.2,32.2,2.6,7.8,2.4,22.4-.5,30.4-5.6,15.4-17.1,26.2-33.1,31-4.7,1.4-12.6,1.6-58.8,1.6s-53.3.4-53.3.8,6.1,6.1,13.5,12.5l13.5,11.7h42.4c46.5,0,48.5.2,58.9,6.3,5.4,3.1,16,14.4,15.3,16.2-.3.7.3,3.1,1.4,5.2s2.2,5.1,2.6,6.6,1,2.7,1.5,2.7c1.3,0,2.2,8.8,1.5,14.6-.4,3-.9,5.3-1.2,5-.7-.7-5.2,10.1-5.7,13.7-.6,4.5-11,15.9-12.8,14.1s-2.5.4-4.8,1.6c-2.7,1.4-3.8,2.4-3.1,2.9.7.4-.9,1.5-4.1,2.6-4.8,1.7-9.1,1.9-48.4,2.2l-43.1.3-2.3,2.5c-1.3,1.3-3,2.5-3.9,2.5-2.1,0-9.1,5.8-9.1,7.5s-3.4,4.2-7.5,7.6-7.2,6.6-6.9,7.1,24.9.8,54.8.8c58.9,0,58.7,0,70.1,5.7,6.2,3.1,18,14.7,17.2,16.8-.6,1.6,2.6,8.3,4.9,10,.7.6,1.6,2.8,2,5s.9,4.8-.5,10.3c0,2.2.4,4.1.9,4.3.5.2.5,2.7,0,6.1-.5,3.2-1.3,5.6-1.7,5.3-.8-.5-7.6,12.1-7.6,14.1,0,2-8.7,10.4-10.7,10.4s-9.9,3.9-9.3,5c.3.5-1.8,1.6-4.6,2.5-4.6,1.4-17.7,1.5-106.3,1.4-55.6,0-103.5-.4-106.6-.8M425.8,469.3c4.3-2.6,12.8-9.4,19.9-16,6.8-6.3,12.8-11.5,13.3-11.5,1.7,0,14-10.7,19.1-16.5,2.7-3.1,6.3-6.3,8-7,3.8-1.6,11.5-8.1,12.4-10.5.8-2.2,19.5-18,21.2-18s5.9-3.9,5.9-5.2,2.7-3.4,6.1-6.5,7-7.4,8.1-9.6c4.7-9.2,3-21.2-4-28.4-2-2.1-10.7-9.7-19.2-17-8.5-7.2-32.4-27.7-53-45.4-20.6-17.7-39.3-33.1-41.5-34.1-9.4-4.3-25.4-1-30.7,6.3-4.9,6.6-7.2,17.2-5.6,25.1.9,4.2,2.2,6,12,15.8,6.1,6.1,13.6,12.8,16.8,15s6.2,5.1,6.8,6.4l1.1,2.4h-30.7c-77.9,0-275.8,1.3-276.3,4.1-3.2,0-13.5,8-17.7,13.6-16.5,22.2-6.9,52.9,19.6,62.8,5.6,2.1,6.4,2.1,107.7,2.3,112.3.2,197.4,1,198.2,1.8.7.7-6.9,8-14.1,13.4-3.2,2.4-6.9,6.1-8.2,8.2s-3.7,4.5-5.3,5.4c-4.2,2.2-8.9,8-10.1,12.5-1.1,4.2-.4,11.7,1.3,13.8.6.7.8,1.5.4,1.8-.9.9,1.3,6.6,3.9,10,3.7,5,13.5,9.1,22.4,9.3,3.7,0,5.9-.7,12.1-4.4M598.9,396.2c5.6-.3,11.8-2.9,11.8-5,0-.6,3.5-4.6,7.8-9s8.2-9.1,8.8-10.5c1.2-2.9,1.2-26.3,0-29.9-1-2.9-3.4-5.8-13.8-16.2-6.2-6.2-8.7-8.1-12.5-9.1-6.1-1.7-79.7-.9-79.7.8s4.8,5.2,10.7,10.3c8.4,7.2,11.3,10.4,13.4,14.7,3.5,7.2,4.3,16.8,2,25-1.5,5.2-2.7,6.9-10,14.1-4.7,4.6-9.1,8.1-10.1,8-2-.2-6.7,6-5.8,7.6.5.9,55.8.3,77.5-.7"/>
  <path id="_x32_7" class="st10" d="M257.1,279.8c1.5-7.7,7.8-12.2,14.2-10,4,1.3,8.4,6.2,8.4,9.3,0,2.1-.3,2.2-10.1,1.9-7.3-.2-10.5,0-11.7,1-1.4,1.2-1.5,1-.9-2.1"/>
  <path id="_x32_4" class="st0" d="M341.7,526.2c0-1.8-5-2.1-6.9-3.5h-27.8c-19.6,0-28.2.3-29,1.1-.6.6-2.7,1.2-4.5,1.2h-3.4c0,.1-2.1-10.9-2.1-10.9-3.1-15.7-2.7-15.5-19.2-12-7.3,1.5-14.2,3.5-15.3,4.5-2,1.6-2,2-.8,9.1.7,4.1,1.5,7.8,1.7,8.4s-1.2,1-3.1,1.1c-2,0-3.7-.5-4-1.2-.4-1.1-10.2-1.3-52-1.3s-51.9-.2-57.3-1.8c-15.8-4.9-26.8-17.8-29.6-34.7-3.4-20.8,10.5-41.4,31.8-47,5-1.3,15.2-1.5,65.7-1.5s59.9-.2,60.4-1.5c.5-1.2.9-1.3,2-.4.8.6,2.9.9,4.7.6,3.3-.5,3.4-.5,6.2,6.4,4.8,11.5,7.7,11.5,15.7,0l5.4-7.7,4.9.4c2.7.2,5.3.8,5.8,1.3.5.5,20.2.9,45,.9h44v8.2c0,6.2.6,9.4,2.2,12.9,2.8,6.3,9.6,13.4,15.8,16.7,4.4,2.3,6.2,2.7,14,2.7,11.9,0,13.8-1.1,39.3-23.1l20.3-17.5,60.2.3,60.2.3,5.8,2.3c11.6,4.7,20.9,14.5,24.8,26,3.2,9.5,2.5,22.2-1.8,31.3-5.4,11.5-14.2,19.2-26.4,23-5.8,1.8-10.9,1.9-111.5,1.9s-105.5.2-106,1.5c-.7.6-9.1.6-7.4-1.4,0-7.1-6.1-13.1-13.3-13.1-7.9,0-13.8,5.7-13.9,13.5,0,2.5-.2,4.5-.4,4.5s-.3-.7-.3-1.5M507.4,482.7c13.3-5,15.2-23.7,3.2-31.6-10.8-7.1-25.4-.1-26.6,12.7-.6,6.5.2,9.3,4,13.6,5.2,5.9,12.6,7.9,19.4,5.3"/>
  <path id="_x33_8" class="st7" d="M123.9,396.6c-15.6-2.5-28.6-14.6-32.8-30.2-5.2-19.6,5.9-40.6,25.6-48.4,4.1-1.6,10.1-1.8,74.4-2.1,47.1-.2,70.3,0,71,.8s3.6,1,6.7,1,7,.3,8.7.6c2.8.6,3,.8,2.2,3.6-.7,2.4-.4,3.6,1.2,5.9,1.1,1.6,2.4,2.9,2.8,2.9.6,0,.6,14.7,0,15.8-.6.9-.4,7.2.3,9.1-.5,4.1-.5,7.9-1.3,9.2-2.3,2.3-2.5,6.6-.4,8.9,2.3,2.5,2.9,9.9,1.2,14-2.1,5-2.1,5.4.5,6.2q2.3.6-.2.8c-1.4,0-7.7.6-14,1.2-14.3,1.3-138.6,2-145.8.8"/>
  <path id="_x39_6" class="st2" d="M262.3,396.6c.3-.5,3.3-.9,6.7-.9,6.5-.1,18.7-1.5,15.1-1.8-3.2-.2-3.3-.9-1.2-5.4,2.3-4.7,1.9-11.9-.7-14.8-2.1-2.3-1.9-6.6.4-8.9,1.4-2.5.8-7.3,1.3-9.2-.7-1.9-.9-8.2-.3-9.1.6-1,.7-15.8,0-15.8s-1.7-1.3-2.8-2.9c-1.6-2.3-1.9-3.5-1.2-5.9.8-2.8.7-3.1-2.2-3.6-1.7-.3-5.6-.6-8.8-.6s-6.1-.5-6.5-1.1c-.5-.8,22.4-1,78.3-.8,85.6.3,83.1.2,81.8,5.6-.3,1.3-.1,3.9.5,5.8.6,1.9.8,3.9.4,4.5s-.8,5.9-.9,11.8-.6,12.8-1,15.4c-.7,4.2-.6,4.7.8,4.1.7,3.6-.9,7.9-.3,8.1-1.4.9-1.3,7.1,0,9.7.8,1.5.8,2.2,0,2.8-.9.5-.8,1.7.4,4.5.9,2.1,1.3,4.2.9,4.8-1.8-.1,5,1.9,2.7,3.2-1.5,1-164.1,1.3-163.5.4"/>
  <path id="_x31_0" class="st1" d="M447.7,446.2c0-.3.4-1.4.9-2.3,1-1.8-.4-13.1-1.8-14.5-1-1-.2-8.7,1.1-10.1,1.4-1.5,1-5.6-.6-6.2-1.1-.4-1.2-1.2-.5-3,.5-1.4.7-4.1.5-6.2-.3-2-.7-6.9-.9-10.7s-.5-7.5-.7-8,.1-1.8.6-2.8c.5-1.1.4-3.1-.2-4.6-.6-1.5-.8-3.2-.4-3.8.8-1.4.6-31.7-.3-33.1-.4-.6-.3-1.7,0-2.3,1.1-1.8,1.4-19,.4-20.3-.6-.7-.4-2.2.6-4,.8-1.6,1.3-3.9,1-5.1-.3-1.2-.2-2.5.3-2.8.5-.3,1.1-3.1,1.4-6.2.5-4.7.2-6.1-1.5-8.4-2-2.7-2-2.9-.3-6.4,1-2,2.6-4.1,3.6-4.7,1.4-.7,1.8-1.9,1.7-4.4-.3-4.7.5-5.1,4.5-2.1,1.9,1.4,4,2.6,4.6,2.6s11,8.4,22.9,18.8,27.5,23.7,34.7,29.8c7.1,6,14.6,12.7,16.7,14.8,7,7.2,8.7,19.2,4,28.3-2.4,4.7-6.8,8.9-28.7,27.5-9.3,7.9-24.6,21-33.9,28.9s-17.3,14.3-17.9,14.2-2.8,1.2-5.1,3.1c-4.9,3.9-6.6,5.1-6.6,4.2"/>
  <path id="_x39_7" class="st4" d="M405.7,471.9c-11.7-3.8-18.9-13.7-19-26,0-9.4,2.8-14,16.4-25.7,17-14.8,23.3-21.1,23.2-23.1-.2-2.7-1.5-4.4-2.8-3.7-.6.4-.8.2-.4-.4.4-.6,0-2.7-.9-4.8-1.2-2.8-1.3-3.9-.4-4.5.9-.5.9-1.3,0-2.8-1.4-2.6-1.4-8.9,0-9.7-.6-.6,1-6.8.3-8.1-1.4.5-1.5,0-.8-4.1.4-2.6.9-9.6,1-15.4s.5-11.2.9-11.8.2-2.7-.5-4.6-.8-4.4-.5-5.5c1.1-3.5-1.2-5-8.4-5.2-5.7-.2-5.2-.3,3.3-.8l9.9-.6-18.1-16.2c-20.3-18.2-22.3-21-22.3-30.9,0-18.8,20.1-32.3,36.1-24.2,4.6,2.3,39.3,31.7,38.4,32.6-.3.3-2.1-.8-4.1-2.3-4.1-3.2-5-2.8-4.6,1.9.2,2.5-.3,3.7-1.7,4.4-1,.6-2.7,2.7-3.6,4.7-1.7,3.5-1.7,3.7.3,6.4,1.7,2.3,1.9,3.7,1.5,8.4-.3,3.1-1,5.9-1.4,6.2-.5.3-.6,1.5-.3,2.8s-.1,3.5-1,5.1c-1,1.8-1.2,3.3-.6,4,1.1,1.3.8,18.4-.4,20.3-.4.7-.4,1.7,0,2.3.9,1.4,1.2,31.7.3,33.1-.3.6-.2,2.2.4,3.8.6,1.6.7,3.6.2,4.6-.5,1-.7,2.3-.6,2.8s.4,4.1.7,8,.7,8.7.9,10.7c.3,2,0,4.8-.5,6.2-.7,1.9-.6,2.6.5,3,1.6.6,2,4.7.6,6.2-1.2,1.4-2.1,9.1-1.1,10.1,1.5,1.5,2.8,12.7,1.8,14.7-1.7,3.2-.3,2.8,5.1-1.4,2.9-2.3,5.4-3.9,5.7-3.7.7.7-31.3,28.1-35.9,30.8-4,2.3-13.5,3.5-17.7,2.1"/>
  <path id="path2" class="st11" d="M242.7,530v-2.9h9.5c5.2,0,9.5.3,9.5.7s-3.3,1.4-7.2,2.3-8.3,1.9-9.5,2.2c-2,.5-2.2.2-2.2-2.3"/>
  <path id="path3" class="st11" d="M247.1,434.2l-1.6-2.5-54.1-.3c-47.5-.2-54.1-.4-53.9-1.8.2-1.5-17.6-20.5-25.7-27.3-4.9-4.2-5.3-4.1,7-.6,6.2,1.7,14,1.8,149.5,1.9h143c0,0-9,8.3-9,8.3-5,4.5-11.5,10.8-14.6,14l-5.6,5.8h-45.7c-44.9,0-45.8,0-46.3,2-.4,1.6-1.4,2-4.4,2-4.5,0-4.8-1-1.4-5.4,2.7-3.6,3.2-6.8,1.2-8.4-.7-.6-6.6-1.8-13.2-2.6-22.6-3-24.3-2.1-19,9.9,1.4,3.1,2.3,6.1,1.9,6.6-1.2,2-6.4,1-8-1.6"/>
  <path id="_x33_3" class="st13" d="M521.3,396.9c-.3-.5,3-3.8,7.2-7.4,17.3-14.6,21-21,20-34.9-.8-11-3.9-16.1-16.6-27-5.9-5.1-10.7-9.7-10.7-10.3s10.7-1.2,35.4-1.4c38.5-.3,42.8.1,51.5,5.3,6.1,3.6,13.2,11.5,16.4,18.3,2.4,5.1,2.7,6.9,2.7,16.7s-.3,11.6-2.7,16.8c-3.6,7.6-11.8,16.2-19.3,20.1l-6,3.1-24,.7c-34.7,1-53.3,1-53.9,0"/>
  <path id="path4" class="st5" d="M260.6,296.4c-13.1-6.9-13-24.7.1-31.5,5.6-2.9,12.4-2.6,17.4.9,5.9,4,9.4,12.6,4.1,23.3-1.4,2-2.3,4.1-2,4.5.8,1.3-7.7,5-11.6,5s-5.5-1-7.9-2.3M274.3,291.1c5.7-3.8,7.1-12.1,2.9-17.2-7.4-8.8-19.5-4.3-20,7.4-.2,5.3,1.2,8.5,4.6,10.2,3.5,1.8,9.6,1.6,12.6-.4"/>
  <path id="path5" class="st5" d="M350.1,536.3c-4.7-2.1-7.6-6.8-7.6-12.6s2.6-10.2,9.1-11.9c10-2.6,18.2,2.7,18.2,11.7,0,10.6-9.8,17-19.6,12.7M361.3,529.3c1.5-1.5,2.5-3.6,2.5-5.5,0-3.8-3.9-8-7.3-8s-7.7,3.6-7.7,8c0,7.1,7.6,10.4,12.5,5.5"/>
  <path id="path6" class="st5" d="M300.1,238.3c-7-3-10.2-13.6-6-20,4.3-6.5,13.5-8.5,19.7-4.3,4.3,2.9,5.9,6,5.9,11.9,0,3.6-.6,5.4-2.7,7.9-4.6,5.5-10.8,7.1-16.9,4.5M312,230.6c2.7-3.2,2.3-8.3-.9-10.8-1.4-1.1-3.6-2.1-4.9-2.1s-3.4.9-4.9,2.1c-2.8,2.2-3.5,6.4-1.6,10,2.3,4.2,8.9,4.6,12.2.7"/>
  <path id="path7" class="st5" d="M239,538c-1.4-1.2-2.8-5.4-4.6-13.9-1.4-6.7-2.6-13.1-2.6-14.2,0-3.2,3.4-4.7,17.4-7.6,16.4-3.5,15.7-4,19.4,14.8,2.4,12,2.5,13.9,1.2,15.1-1.1,1-25.6,7.6-28.4,7.6s-1.2-.8-2.3-1.8M255.1,530.1c4.3-.9,8.1-2.3,8.3-2.9s-.4-5.4-1.4-10.6l-1.9-9.3h-3.2c-1.7.2-6.6,1.1-10.8,2l-7.6,1.7.6,3.7c.3,2,1.3,7,2.2,11,1.5,6.6,1.8,7.3,3.8,6.8,1.2-.3,5.7-1.3,10-2.3"/>
  <path id="path8" class="st5" d="M62.8,300.7c-2-.5-4.9-2.3-6.8-4.4-2.9-3.1-3.3-4.2-3.3-9.2s.3-5.9,3.9-9.5,5.8-4.4,12.1-3.9c4.7.4,8.1,3,10.2,7.7,5,11.3-4,22-16.2,19.2M70.7,293.8c4.3-2.3,4-11.7-.4-13.4-8.3-3.2-15.2,5.8-9.4,12,2.3,2.5,6.6,3,9.8,1.3"/>
  <path id="path9" class="st5" d="M494.2,482.3c-3.7-1.6-9.2-7.7-10.1-11.2-2-8,2-17.5,8.9-21.1,11.2-5.9,25.7,2.9,25.7,15.7s-13,21.6-24.5,16.6M508.1,474.7c8.4-6.6,3.4-19.9-7.6-19.9s-7.3,2.1-9.3,6c-2.5,4.8-1.9,8.8,1.9,12.6,2.9,2.9,4.1,3.4,7.9,3.4s5.3-.7,7.1-2.1"/>
  <path id="path10" class="st5" d="M628,432.6c-2.2-2.3-1.4-4.9,5.3-17.5,6.5-12.2,8.8-14.9,11.9-13.8,1.9.7,10.8,15.2,10.1,16.3-.5.8,2.4,7.2-.8,13.8-1.6,1.4-4.2,1.8-13.6,2.1-8.5.2-12,0-12.9-1M653.8,426.4c.3,0-1.9-4-4.9-8.6-4.7-7.3-5.6-8.2-6.5-6.6-.6,1-2.8,4.1-4.9,6.9-3.6,4.7-4.6,7.5-3.3,8.8.5.5,17.8,0,19.5-.5"/>
  <path id="path11" class="st5" d="M84,432.8c-8.6-5.2-8.2-18.9.6-23.5,3.8-2,10.4-2,14.2,0,3.2,1.7,6.8,8.1,6.9,12.3,0,3.8-3.1,9.2-6.4,11.3-4.1,2.5-11.1,2.4-15.3,0M96.4,427.3c4-2.8,3.2-11.2-1.2-12.9-5.2-2-11.5,1.8-11.5,6.9s7.8,9.5,12.7,6"/>
  <path id="path12" class="st5" d="M628.4,307.4c-9.5-9.1-10.8-10.7-10.5-13.2.3-2.8.7-3,15.3-7.2,8.2-2.3,15.6-4.1,16.4-4,3.5.7,3.6,3.5.6,15.2-1.6,6.3-3.3,11.2-3.7,11-.5-3-3.9,11.8-5.1,8.6-1.5,0-5.9-3.5-13.1-10.3M643.2,300.7c1.3-5.2,2.2-9.6,2-9.9s-3.4.3-6.9,1.2c-3.5.9-7.5,1.7-8.8,1.7-2.9,0-5.2,2.3-4.4,4.4.3.8,2.1,2.2,3.9,3,1.9.9,5.1,3.4,7.2,5.6s4,3.8,4.2,3.6c.2-.2,1.4-4.5,2.8-9.7"/>
  <path id="path13" class="st5" d="M499.9,262.7c-8.4-5.1-8-18.9.7-23.4,4.1-2.1,10.9-2,14.7.3,3.4,2.1,6.4,7.5,6.4,11.6s-3,9.5-6.4,11.6c-4.1,2.5-11.1,2.4-15.4-.1M512.8,256.9c1.7-1.4,2.3-2.9,2.3-5.6,0-7.1-9-10.4-13.3-4.9-2.7,3.5-2.6,6.9.4,9.9s7.4,3.2,10.6.6"/>
  <path id="path14" class="st10" d="M244.3,280.1c-.4-1.1-10.9-1.4-59.8-1.4-36.3,0-61-.4-63.7-1-21.5-5-35.8-26.3-32.2-48.1,3-18.4,17.6-32.9,36.1-35.8,4.2-.7,57.2-1,152.9-1,101,0,146.7-.3,147.6-1,1.4-1.2,6.1-.7,5.8.6-.1.5-.8,2.3-1.5,4.1-1.7,4.3-.5,5.4,14.4,13.3,14.4,7.6,13.8,7.8,22.2-7.9,5.7-10.6,6.1-11.1,9.2-11.1s3.5.5,3.8,1c.4.6,17.3,1,47.3,1,58.4,0,64.9.5,74.7,5.4,8.6,4.2,15.9,11.6,20.2,20.3,2.6,5.3,2.8,6.7,2.8,17.3s0,11.7-3.7,19.1c-5.7,11.5-15,19.1-27.2,22.3-5,1.3-14.6,1.6-62.3,1.6h-56.3l-23.2-20c-25.5-22-27.3-23-39.1-23-14.8,0-26.7,9.4-31.1,24.5-1.6,5.4-1.5,12.6.2,17,.5,1.3-4.9,1.5-43.3,1.5s-44.2.3-45,1.1c-.6.6-2.4.9-3.9.8-2.3-.3-3-1-3.5-3.4-1.6-7.7-7.9-13.5-15.7-14.1-8.8-.8-17.4,5.9-18.8,14.6-.5,3.1-1,3.6-3.4,3.7-1.6,0-3.1-.5-3.4-1.2M515.3,262.8c1.7-1,3.8-3.5,4.8-5.4,4.5-9.6-1.7-19.7-12.1-19.7-10.9,0-17,9.3-12.8,19.5,2.9,6.9,13.3,9.8,20.1,5.6M311.1,238.4c5.4-2.2,8.7-7,8.7-12.5,0-5.8-1.6-9-5.9-11.9-6.3-4.2-15.5-2.2-19.7,4.3-2.6,3.9-2.3,11.3.6,15.4,3.9,5.5,10.2,7.3,16.4,4.7"/>
  <path id="path15" class="st5" d="M118.4,283.6c-7.6-1.8-16.7-7-22.6-12.8-21.3-21.3-17.9-58.3,6.9-74.9,3.4-2.3,6.8-3.9,7.5-3.6,1.4.5,5.6-1.2,6.6-2.8,1.7-2.6,17.4-2.9,158.5-2.9s148,.3,148.9.6c1.7.7,2.1,3.9.6,4.9-.5.3-66.8.6-147.2.6-95.6,0-148.5.3-152.8,1-18.5,2.9-33.1,17.4-36.1,35.8-2.6,15.9,4.5,33,17.4,41.4,11.7,7.7,7.2,7.2,76.2,7.8,0,0,62,.5,62,5.5l-61,.2c-34,0-62.7-.3-64.9-.8"/>
  <path id="path16" class="st5" d="M263.9,450.8c-1.6-1-13.1-26.5-13.1-29s2.1-4.1,6-4.1c6.2,0,27.4,3.1,28.7,4.2,2.8,2.3,1.3,5.8-4.8,11.8-3.3,3.3-5.8,6.4-5.4,7,.8,1.3-4.8,9.6-7,10.4-2.1.8-2.7.8-4.3-.3M273.1,435l5.4-7.8-3.4-1.6c-1.9-.9-6-2-9.2-2.3-7.7-.9-9.3.6-6.9,6.5,1.8,4.6,6.9,12.9,7.9,12.9.4,0,3.2-3.5,6.2-7.7"/>
  <path id="path17" class="st5" d="M443.7,209.6c-12.5-6.7-15-8.4-15-10.7s3-7.1,6.8-13.9c4.8-8.7,7.4-12.5,8.9-12.9,2.8-.7,27,11.9,27.8,14.5.7,2.3.2,3.6-6.2,15.6-4.8,8.9-8.3,13.5-10.1,13.5-.4,0-5.8-2.8-12.1-6.1M461,198.1l4.8-9.1-9.3-5c-7-3.7-9.6-4.7-10.6-3.9-1.1.9-8,13.7-9.3,17.2-.4,1.2,16,10.4,18.1,10.1.8,0,3.6-4.3,6.3-9.3"/>
  <path id="path18" class="st0" d="M265,440.3c-1.3-2.8-.7-3.6,2.4-3.6s3.6,1.2,1.8,3.8c-1.9,2.8-2.8,2.7-4.2-.2"/>
  <path id="path19" class="st5" d="M124.2,528.6c-18.2-2.1-33.8-14.7-40-32.3-2.2-6.4-3-19.6-1.6-26.4,3.6-17,17.5-31.4,35.1-36.5,4.8-1.4,13.2-1.6,67-1.3,0,0,61.5.3,61.5,5.3l-62.5.5c-56.8.5-62.9.7-67,2.3-15.4,6.1-25.3,17.9-28.2,33.6-2.9,15.6,5.4,33.9,19.3,42.7,9.6,6.1,7.7,5.9,65.9,6.4,0,0,53.5.5,52.8,5.5-2.2.8-95.8,1.1-102.3.3"/>
  <path id="_x39_5" class="st9" d="M643.5,315.5c.5-.7,1.5-2.6,2-4.2.9-2.6,1.1-2.7,1.1-.7,0,2.8-1.6,6.2-3.1,6.2s-.8-.4,0-1.2"/>
  <path id="path20" class="st10" d="M60.9,292.4c-5.9-6.3,1.1-15.2,9.4-12,2.7,1,4.4,6.2,3.3,9.6-1.8,5.2-8.8,6.6-12.6,2.5"/>
  <path id="_x32_5" class="st3" d="M261.3,431.6c-3.2-7.2-3.2-8.2.2-7.5,1.5.3,5.2.8,8.2,1.2,9.6,1.1,9.4.9,5.5,6.8-3.2,4.8-3.8,5.2-7.5,5.2-3.9,0-4-.1-6.5-5.6"/>
  <path id="path21" class="st11" d="M131.6,309c0-.4-.2-1.3-.2-2s-4-5.2-8.6-10c-4.7-4.8-10.5-10.9-13-13.5l-4.5-4.8,6.5,2.8,6.5,2.8,62.4.3c62.2.3,62.4.3,64.3-1.8,2.9-3.1,4.7-2.1,7.1,4,4.1,10.2,14.7,14.6,24.1,10.1,5.3-2.5,7.9-5.8,9.5-11.8.9-3.5,1.6-4.2,3.5-4.2s2.6.7,3,2c.6,2,1.5,2,46.1,2h45.5l12.7,11.6c7,6.4,12.9,12,13,12.5.2.5-57.4.9-138.8.9s-139.1-.3-139.2-.8"/>
  <path id="path22" class="st10" d="M502.2,256.3c-3-3-3.1-6.4-.4-9.9,4.4-5.5,13.3-2.3,13.3,4.9s-7.9,10.1-12.9,5"/>
  <path id="path23" class="st10" d="M444.7,202.9c-4.7-2.6-8.3-5.1-8.1-5.6.2-.5,1-2.4,1.8-4l1.5-3,9.2.4c5.1.2,10.9,0,12.9-.6l3.8-1-4.8,9.2c-2.6,5-5.5,9.2-6.3,9.3s-5.3-1.9-10-4.5"/>
  <path id="_x38_" class="st12" d="M86.2,426.3c-1.4-1.3-2.5-3.6-2.5-5,0-3.3,4.1-7.5,7.4-7.5s5.6,1,7.1,3.9c4.1,8-5.6,15-12,8.7"/>
  <path id="_x33_7" class="st6" d="M634.7,426.7c0-.4,2-4.5,4.4-9l4.4-8.2,5.4,8.4c3,4.6,5.2,8.5,4.8,8.6-2.3.7-19.1.9-19.1.3"/>
  <path id="path24" class="st3" d="M242,527.7c.2-2.5.3-2.5,10.1-2.8,10.1-.3,13.2.6,10.8,3-.7.7-1.2.8-1.2.2s-3.7-1-9.5-1-9.5.3-9.9,1.6c-.3.9-.4.4-.3-.9"/>
  <path id="path25" class="st9" d="M265.5,424.8c-2.6-.4-5.1-1-5.5-1.5-1.1-1.1,12,.4,13.2,1.5,1.1,1-.4,1-7.7,0"/>
  <path id="path26" class="st9" d="M390.7,470.2c-1.9-1.9-3-3.5-2.6-3.5,1.2,0,7.6,5.1,7.6,6.1,0,1.7-1.6.8-5-2.6"/>
  <path id="path27" class="st0" d="M241.2,524.7c-.7-1.2-2.7-13.1-2.3-13.5.9-.9,19.1-4.6,20.3-4.1.6.2,1.7,3.5,2.4,7.3s1.5,7.8,1.7,8.9c.5,1.9,0,2-10.7,2s-11.3-.2-11.4-.5"/>
  <path id="path28" class="st9" d="M275.3,439.5c1.2-2.2,4.7-5.8,5.6-5.8s-.3,1.6-1.8,3.5c-2.5,3.3-5.4,5-3.8,2.2"/>
  <path id="path29" class="st3" d="M351.4,529.7c-4.6-3.6-3.5-4.9,4.3-4.9s7.2.4,7.6,1c1,1.5-4.1,6-6.8,6s-3.6-.9-5-2.1"/>
  <path id="path30" class="st9" d="M260.3,432.6c-1.4-3-2.5-6.1-2.5-6.9s1.4,1.4,3,4.9,2.7,6.6,2.5,6.9c-.3.3-1.6-1.9-3-4.9"/>
  <path id="path31" class="st9" d="M376.5,527.5c-.2-.7,0-2,.5-3,.7-1.4,2.2-1.8,6.8,3.3l5.5.6-6.2.2c-4.2.1-6.3-.2-6.6-1.1"/>
  <path id="path32" class="st9" d="M414,472.7c7.7-1.1,10.1-2.5,22.4-13.1,32.1-27.6,43.7-37,40.7-33.2-3.4,4.3-16.3,15.3-18,15.3s-6.5,5.2-13.3,11.5c-15.5,14.4-25.2,20.5-32.4,20.4h-5c0-.1,5.7-1,5.7-1"/>
  <path id="path33" class="st9" d="M627.4,464.1c-1.8-3-4.7-8.5-4.7-8.8s.5-.5,1.1-.5c1.2,0,5.4,8.9,4.6,9.7-.3.3-.7.1-1-.3"/>
  <path id="path34" class="st9" d="M521.7,386.8c1.9-1.6,3.7-2.7,3.9-2.5.8.8-4.2,5.4-5.8,5.4-1,0-.3-1.1,1.9-2.9"/>
  <path id="path35" class="st9" d="M365.8,514.4c-2-2.4-9.6-4-13.2-2.7-4.4,1.5-5.9,1.3-2.9-.4,4.9-2.8,13.4-1.3,16.9,2.9.7.9,1.1,1.6.8,1.6s-1-.6-1.6-1.4"/>
  <path id="path36" class="st9" d="M401.6,419.9c.6-1.2,3.9-4.3,7.3-6.9s8.2-6.8,10.7-9.2l4.5-4.5-5-.6c-2.8-.3-17.4-.4-32.6-.2-19.2.3-27.9,0-28.3-.7-.5-.8,9.1-1,33.6-.8,21.8.2,34.3.6,34.5,1.3.2.9-16.1,16.2-23,21.6l-2.9,2.2,1.2-2.2"/>
  <path id="path37" class="st9" d="M626.7,380.3c0-1.5,5.8-14.5,6.2-14,1.1,1.1-3.8,14.4-5.4,14.4s-.9-.2-.9-.4"/>
  <path id="path38" class="st9" d="M398.9,470c-2.9-1.4-6.3-4-7.6-5.7-2.2-2.9-5-9.6-4.1-9.6s1.2,1.5,2.1,3.2c3.2,6.4,9.6,11.7,16.4,13.8,2,.6,2.1.8.5.8-1.1,0-4.4-1.1-7.3-2.6"/>
  <path id="path39" class="st0" d="M356,525c-6.9-.3-7.2-.5-7.2-2.7s4.3-6.5,7.7-6.5,7.3,4.2,7.3,7.5-.1,2.5-.2,2.3-3.5-.4-7.5-.5"/>
  <path id="path40" class="st9" d="M598.4,521.1c-.5-.5,6.6-5.3,7.9-5.3s-.2,2.2-3.2,3.9c-4,2.4-3.9,2.3-4.8,1.4"/>
  <path id="path41" class="st9" d="M626.2,344.3c-1.1-3.6-1.6-6.5-1.1-6.3,1.4.5,3.8,7.8,3.4,10.6-.2,1.6-.9.3-2.3-4.3"/>
  <path id="path42" class="st9" d="M86.4,340.2c.9-2.5,1.8-4.4,2-4.1.7.7-1.6,7.5-2.7,8.1-.5.3-.2-1.5.7-4"/>
  <path id="path43" class="st9" d="M279.7,293.3c0-.3,1.1-2.1,2.5-4.1,1.5-2.3,2.5-3,2.5-2,0,2-2.9,6.6-4.1,6.6s-.9-.2-.9-.5"/>
  <path id="path44" class="st9" d="M620.7,509.4c0-.3,1.7-3.8,3.8-7.6,4.1-7.7,5.8-7.1,1.9.7-2.2,4.3-5.6,8.5-5.6,6.9"/>
  <path id="path45" class="st9" d="M605.7,398.3c0-.5,7.5-4.5,8.5-4.5,1.5,0,.2,1.7-2.5,3.2-2.9,1.7-5.9,2.3-5.9,1.3"/>
  <path id="path46" class="st9" d="M385.5,447.3c-1-6.8.6-12,5.4-17,3.8-4,3.9-4,1.6-.6-4.4,6.2-5.2,8.4-5.7,15.5l-.5,7-.7-4.9"/>
  <path id="path47" class="st9" d="M633.7,425.4c0-1.7,5.5-10.7,6.6-10.7s-1.8,4.6-4.7,9.4c-1.4,2.2-1.9,2.6-1.9,1.3"/>
  <path id="path48" class="st9" d="M624.7,372c1-2.6,2.2-5.7,2.6-6.8.7-1.8.8-1.7,1.1.6.4,2.9-2.6,10-4.4,10.6-.8.3-.5-1.3.7-4.4"/>
  <path id="path49" class="st9" d="M604.7,319.6c-1.9-1-5.2-2.2-7.2-2.5s-3.8-1-3.8-1.6,1.4-.7,3.2-.3c4.3.9,11.8,4.4,11.8,5.6s-.1.9-.2.8c-.1,0-1.8-1-3.8-2"/>
  <path id="path50" class="st9" d="M621.6,463.2c-.9-2.5-1.2-4.5-.8-4.5,1,0,2.4,2.6,3.3,6.2,1.1,4.4-.7,3.2-2.5-1.8"/>
  <path id="path51" class="st9" d="M484.7,418.3c0-.1,3.2-2.8,7-6,8-6.6,9.6-6,1.9.7-4.1,3.6-8.9,6.4-8.9,5.3"/>
  <path id="path52" class="st9" d="M654.7,431.3c.7-.9,2.1-1.3,3.1-1,2.3.7,3.5-1.2,1.9-3-1.1-1.3-5-8.5-5-9.2s.4-.3.9-.3c1.7,0,6.2,9,5.9,11.8-.3,2.4-.8,2.8-4.2,3-3.5.3-3.8.1-2.6-1.3"/>
  <path id="path53" class="st9" d="M601.5,442.4c-4.8-2.2-6.1-3.7-3.1-3.7s8.4,3.8,8.4,5.1-.1.9-.2.8-2.4-1.1-5-2.2"/>
  <path id="path54" class="st9" d="M600.7,524.3c0-.9,8.2-4.6,9.3-4.2.6.2-.7,1.4-3,2.6-4.1,2.1-6.3,2.7-6.3,1.7"/>
  <path id="path55" class="st9" d="M402.2,412.3c2.2-1.9,4.2-3.2,4.4-3,.8.8-5.2,6.4-6.8,6.4-1,0,0-1.3,2.4-3.4"/>
  <path id="path56" class="st9" d="M380.7,439.4c0-1.6-3.3-1.7-44.3-1.7s-46.8,0-43.5-1h44.3c44.1,0,47.6.3,44.6,3.3-.8.8-1.1.7-1.1-.6"/>
  <path id="path57" class="st9" d="M262.9,315.2c.3-.3,36.3-.5,80.1-.5h79.6c0,0-1.1-2.5-1.1-2.5-.6-1.3-3.7-4.2-6.8-6.4-3.2-2.2-10.7-9-16.8-15-12.5-12.5-13.9-15.4-12.2-26,1.8-11.3,5.6-17,13.7-20.6,7.1-3.1,9.4-3.2,2.8,0-9.7,4.6-15.4,13.5-15.5,24,0,9.9,2,12.7,22.1,30.7,9.8,8.8,17.9,16.2,17.9,16.4s-37,.4-82.2.4-81.9-.2-81.7-.5"/>
  <path id="path58" class="st9" d="M118.2,311.3c4.6-1.6,9.4-2,8-.6-.5.5-3.4,1.2-6.5,1.5l-5.5.6,4-1.4"/>
  <path id="path59" class="st9" d="M629.7,479.7c0-2.5.4-3.8,1-3.4.5.3,1,2.2,1,4.1s-.5,3.4-1,3.4-1-1.8-1-4.1"/>
  <path id="path60" class="st9" d="M495.7,415.8c0-1.2,7-7.1,8.4-7.1s-4.3,5.8-6.7,7.1c-1.1.6-1.8.6-1.8,0"/>
  <path id="path61" class="st9" d="M434.7,467.9c0-1.3,10-9.5,10.8-8.7s-1.6,2.6-4.3,5.1c-4.9,4.4-6.4,5.3-6.4,3.7"/>
  <path id="path62" class="st9" d="M628.4,301c-1.5-.8-3.1-2.1-3.4-2.9-.7-1.8,1.4-4.4.3-2.3l3.4,3.5c3.7,3.8,3.7,3.9-.3,1.8"/>
  <path id="path63" class="st9" d="M619.6,500.8c2.8-5.2,4.8-6.8,3.7-2.8-.8,2.8-3.7,7-5.2,7.5-.6.2,0-1.9,1.6-4.7"/>
  <path id="path64" class="st9" d="M463.7,442.8c0-1.2,5.8-6.1,7.3-6.1s-.4,1.6-2.3,3.5c-3.4,3.5-5,4.3-5,2.6"/>
  <path id="path65" class="st9" d="M522.2,393.7c1.4-2.4,3.8-4.9,4.7-4.9,1.8,0,.7,2-2.3,4.1-1.8,1.3-2.8,1.6-2.3.8"/>
  <path id="path66" class="st9" d="M601.3,395.9c-.4-.7,7.3-5.2,8.9-5.2s-.1,2-3.4,3.8c-4.3,2.4-4.8,2.5-5.5,1.4"/>
  <path id="path67" class="st9" d="M381,285c-2.3-.2-4-.8-3.7-1.3.6-1,6.5-.2,7.9,1.2.5.5.7.8.5.7s-2.4-.3-4.7-.6"/>
  <path id="path68" class="st9" d="M115.2,316.9c.6-.6,3.7-1.3,7-1.6,7.1-.7,4.6.9-3.1,2-3.5.5-4.6.4-3.9-.4"/>
  <path id="path69" class="st9" d="M631.3,344.1c-.4-1.5-1.5-4.5-2.6-6.7-2.2-4.6-2.2-4.6-1.1-4.6s1.8,2.1,2.9,4.8c2.9,6.8,3.5,9.2,2.4,9.2s-1.3-1.2-1.6-2.7"/>
  <path id="path70" class="st9" d="M262.2,291.8c-2.3-.9-3.8-2.7-4.9-5.5-.4-1.2.6-.6,2.8,1.7,2.9,3,4.4,3.7,8.3,4l4.8.4h-4.5c-2.5.2-5.4-.1-6.5-.6"/>
  <path id="path71" class="st9" d="M110.2,191.8c.8-1.2,6.6-3.2,6.6-2.2s-4.4,3.1-6.1,3.1-.8-.4-.5-.9"/>
  <path id="path72" class="st8" d="M441.9,189.9c-1.1-.7-1-1.5.4-4.2,3.7-7.3,3.7-7.3,13.5-2.1,4.9,2.6,8.9,5,8.9,5.3,0,1.8-20.2,2.7-22.8,1"/>
  <path id="path73" class="st10" d="M303,232.7c-4.9-2-5.9-9.6-1.7-12.9,1.4-1.1,3.6-2.1,4.9-2.1,3.8,0,7.5,3.7,7.5,7.5,0,5.8-5.5,9.7-10.7,7.6"/>
  <path id="path74" class="st3" d="M632.7,303.2c-7.2-7.2-7.3-7.5-4.9-8.3,4.5-1.7,16.9-4.6,17.4-4.1s-4,18.8-4.7,19.5c-.2.2-3.6-3-7.7-7.1"/>
  <path id="path75" class="st0" d="M493.1,473.3c-3.8-3.8-4.4-7.7-1.9-12.6,4.3-8.4,15.9-8,20,.6,3.6,7.5-1.7,15.4-10.2,15.4s-5-.5-7.9-3.4"/>
  <path id="path76" class="st11" d="M260.8,288.6c-2-2-3-3.9-2.8-5.2.3-2,1-2.1,10.6-2.4,11.5-.3,12.6.3,9.8,5.7-2,3.9-4.3,5.1-9.9,5.1s-5-.6-7.6-3.1"/>
</svg>